<?xml version="1.0" encoding="utf-8"?>
<!-- Generator: Adobe Illustrator 25.3.1, SVG Export Plug-In . SVG Version: 6.00 Build 0)  -->
<svg version="1.1" id="圖層_1" xmlns="http://www.w3.org/2000/svg" xmlns:xlink="http://www.w3.org/1999/xlink" x="0px" y="0px"
	 viewBox="0 0 291 205" style="enable-background:new 0 0 291 205;" xml:space="preserve">
<style type="text/css">
	.st0{stroke:#FFFFFF;stroke-width:10.8579;stroke-linecap:round;stroke-linejoin:round;stroke-miterlimit:10;}
	.st1{stroke:#FFFFFF;stroke-width:8.5039;stroke-linecap:round;stroke-linejoin:round;stroke-miterlimit:10;}
	.st2{stroke:#FFFFFF;stroke-width:7.6282;stroke-linecap:round;stroke-linejoin:round;stroke-miterlimit:10;}
	.st3{stroke:#FFFFFF;stroke-width:9.4149;stroke-linecap:round;stroke-linejoin:round;stroke-miterlimit:10;}
</style>
<path class="st0" d="M-184.5-542L-184.5-542c-40.32,0-73-11.97-73-43.42v-58.08h146v58.08C-111.5-553.97-144.18-542-184.5-542z"/>
<polygon class="st1" points="-184.5,-604.26 -308.24,-658 -184.5,-711.74 -60.76,-658 "/>
<polygon class="st2" points="405,-408.79 294,-457 405,-505.21 516,-457 "/>
<polygon class="st2" points="405,-448.79 294,-497 405,-545.21 516,-497 "/>
<polygon class="st3" points="405,-485.5 268,-545 405,-604.5 542,-545 "/>
<text transform="matrix(1 0 0 1 -93.9199 -554.877)" style="font-family:'Helvetica-Bold'; font-size:105.9738px;">TASK</text>
<text transform="matrix(1 0 0 1 557.0317 -514.7119)" style="font-family:'MoskUltra-Bold900'; font-size:89.8857px;">TASK</text>
<g>
	<text transform="matrix(1 0 0 1 555.5801 -423.2324)" style="font-family:'MoskUltra-Bold900'; font-size:89.8857px;">PhD</text>
</g>
<path d="M523.5-423L523.5-423c-4.14,0-7.5-3.36-7.5-7.5v-95c0-4.14,3.36-7.5,7.5-7.5l0,0c4.14,0,7.5,3.36,7.5,7.5v95
	C531-426.36,527.64-423,523.5-423z"/>
<polygon class="st2" points="142,201.21 31,153 142,104.79 253,153 "/>
<polygon class="st2" points="142,161.21 31,113 142,64.79 253,113 "/>
<polygon class="st3" points="142,124.5 5,65 142,5.5 279,65 "/>
<text transform="matrix(1 0 0 1 79.0317 -200.7119)" style="font-family:'FONTSPRINGDEMO-GreycliffCFHeavyRegular'; font-size:89.8857px;">TASK</text>
<g>
	
		<text transform="matrix(1 0 0 1 77.5801 -109.2324)" style="font-family:'FONTSPRINGDEMO-GreycliffCFHeavyRegular'; font-size:89.8857px;">PhD</text>
</g>
<path d="M260.5,187L260.5,187c-4.14,0-7.5-3.36-7.5-7.5v-95c0-4.14,3.36-7.5,7.5-7.5l0,0c4.14,0,7.5,3.36,7.5,7.5v95
	C268,183.64,264.64,187,260.5,187z"/>
</svg>
