<?xml version="1.0" encoding="utf-8"?>
<!-- Generator: Adobe Illustrator 25.3.1, SVG Export Plug-In . SVG Version: 6.00 Build 0)  -->
<svg version="1.1" id="圖層_1" xmlns="http://www.w3.org/2000/svg" xmlns:xlink="http://www.w3.org/1999/xlink" x="0px" y="0px"
	 viewBox="0 0 1023 205" style="enable-background:new 0 0 1023 205;" xml:space="preserve">
<style type="text/css">
	.st0{stroke:#FFFFFF;stroke-width:10.8579;stroke-linecap:round;stroke-linejoin:round;stroke-miterlimit:10;}
	.st1{stroke:#FFFFFF;stroke-width:8.5039;stroke-linecap:round;stroke-linejoin:round;stroke-miterlimit:10;}
	.st2{stroke:#FFFFFF;stroke-width:7.6282;stroke-linecap:round;stroke-linejoin:round;stroke-miterlimit:10;}
	.st3{stroke:#FFFFFF;stroke-width:9.4149;stroke-linecap:round;stroke-linejoin:round;stroke-miterlimit:10;}
	.st4{enable-background:new    ;}
</style>
<path class="st0" d="M-184.5-542L-184.5-542c-40.32,0-73-11.97-73-43.42v-58.08h146v58.08C-111.5-553.97-144.18-542-184.5-542z"/>
<polygon class="st1" points="-184.5,-604.26 -308.24,-658 -184.5,-711.74 -60.76,-658 "/>
<polygon class="st2" points="405,-408.79 294,-457 405,-505.21 516,-457 "/>
<polygon class="st2" points="405,-448.79 294,-497 405,-545.21 516,-497 "/>
<polygon class="st3" points="405,-485.5 268,-545 405,-604.5 542,-545 "/>
<text transform="matrix(1 0 0 1 -93.9199 -554.877)" style="font-family:'Helvetica-Bold'; font-size:105.9738px;">TASK</text>
<text transform="matrix(1 0 0 1 557.0317 -514.7119)" style="font-family:'MoskUltra-Bold900'; font-size:89.8857px;">TASK</text>
<g>
	<text transform="matrix(1 0 0 1 555.5801 -423.2324)" style="font-family:'MoskUltra-Bold900'; font-size:89.8857px;">PhD</text>
</g>
<path d="M523.5-423L523.5-423c-4.14,0-7.5-3.36-7.5-7.5v-95c0-4.14,3.36-7.5,7.5-7.5l0,0c4.14,0,7.5,3.36,7.5,7.5v95
	C531-426.36,527.64-423,523.5-423z"/>
<polygon class="st2" points="142,201.21 31,153 142,104.79 253,153 "/>
<polygon class="st2" points="142,161.21 31,113 142,64.79 253,113 "/>
<polygon class="st3" points="142,124.5 5,65 142,5.5 279,65 "/>
<g class="st4">
	<path d="M338.49,164.11V82.51h-20.18c-1.39,0-2.31-1.08-2.31-2.47V61.26c0-1.39,0.92-2.47,2.31-2.47h66.97
		c1.39,0,2.47,1.08,2.47,2.47v18.79c0,1.39-1.08,2.47-2.47,2.47h-20.02v81.59c0,1.39-1.08,2.47-2.47,2.47h-22.01
		C339.42,166.57,338.49,165.5,338.49,164.11z"/>
	<path d="M381.45,163.95l35.4-103.31c0.46-1.23,1.7-1.85,2.93-1.85h23.24c1.23,0,2.62,0.62,3.08,1.85l35.4,103.31
		c0.62,1.54-0.31,2.62-2,2.62h-22.93c-1.23,0-2.31-0.46-2.77-1.85l-4.01-12.93H413l-4.01,12.93c-0.46,1.39-1.39,1.85-2.62,1.85
		h-22.93C381.76,166.57,380.83,165.5,381.45,163.95z M442.42,128.09L431.5,92.84l-11.08,35.25H442.42z"/>
	<path d="M489.37,151.18c-0.77-0.92-0.77-2.16,0.15-3.39l11.54-13.09c1.08-1.23,2.16-1.7,3.55-0.62c7.38,6.78,12.93,9.85,20.48,9.85
		c6.78,0,11.85-2.16,11.85-8.31c0-5.24-3.85-6.78-9.85-9.39l-13.09-6.01c-11.39-5.24-22.78-13.39-22.78-30.8
		c0-20.79,15.71-31.87,34.79-31.87c12.93,0,23.55,4.93,32.95,14.47c0.92,0.77,1.08,2.16,0.15,3.39l-11.39,13.7
		c-0.77,1.23-2,1.7-3.24,0.92c-6.92-5.55-11.85-8-17.56-8c-6.47,0-9.85,3.24-9.85,7.71c0,5.55,4.16,6.78,11.85,10.31l10.46,4.62
		c11.24,5.24,23.55,12.47,23.55,31.1c0,23.24-19.41,32.64-37.25,32.64C508.47,168.42,495.83,159.79,489.37,151.18z"/>
	<path d="M578.65,164.11V61.26c0-1.39,0.92-2.47,2.31-2.47h22.01c1.39,0,2.47,1.08,2.47,2.47v42.34l31.41-43.57
		c0.77-0.92,1.7-1.23,2.77-1.23h26.79c2,0,2.16,1.54,1.23,2.77l-35.25,44.34l39.56,57.89c1.08,1.54,0.46,2.77-1.39,2.77h-25.73
		c-1.23,0-2-0.31-2.77-1.39l-26-38.33l-10.62,13.24v24.01c0,1.39-1.08,2.47-2.47,2.47h-22.03
		C579.58,166.57,578.65,165.5,578.65,164.11z"/>
</g>
<g>
	<g class="st4">
		<path d="M698.19,165.25V62.4c0-1.39,0.92-2.47,2.31-2.47h33.88c26.48,0,38.95,14.47,38.95,35.71c0,21.26-12.47,35.71-38.95,35.71
			H725v33.88c0,1.39-1.08,2.47-2.47,2.47h-22.03C699.12,167.71,698.19,166.63,698.19,165.25z M733.77,107.66
			c7.07,0,14.01-1.85,14.01-12.01s-6.92-12.01-14.01-12.01H725v24.01L733.77,107.66L733.77,107.66z"/>
		<path d="M786.26,165.25V60.1c0-1.39,1.08-2.47,2.47-2.47h20.95c1.39,0,2.47,1.08,2.47,2.47v43.26
			c4.32-7.69,10.93-12.93,21.55-12.93c15.55,0,27.25,11.7,27.25,31.26v43.57c0,1.39-1.23,2.47-2.62,2.47h-20.79
			c-1.39,0-2.47-1.08-2.47-2.47v-37.1c0-9.39-3.85-14.01-11.39-14.01c-7.4,0-11.54,4.62-11.54,14.01v37.1
			c0,1.39-1.08,2.47-2.47,2.47h-20.95C787.34,167.71,786.26,166.63,786.26,165.25z"/>
		<path d="M878.32,165.25V62.4c0-1.39,0.92-2.47,2.31-2.47h35.4c35.4,0,54.96,23.86,54.96,53.88s-19.56,53.88-54.96,53.88h-35.4
			C879.25,167.71,878.32,166.63,878.32,165.25z M915.58,143.99c18.33,0,28.33-10.31,28.33-30.18s-10-30.18-28.33-30.18h-10.46v60.36
			L915.58,143.99L915.58,143.99z"/>
	</g>
</g>
<path d="M260.5,187L260.5,187c-4.14,0-7.5-3.36-7.5-7.5v-95c0-4.14,3.36-7.5,7.5-7.5l0,0c4.14,0,7.5,3.36,7.5,7.5v95
	C268,183.64,264.64,187,260.5,187z"/>
</svg>
